<svg xmlns="http://www.w3.org/2000/svg" viewBox="0 0 1366 253.05"><defs><style>.cls-1{fill:#fff;}</style></defs><g id="Camada_2" data-name="Camada 2"><g id="Camada_1-2" data-name="Camada 1"><path class="cls-1" d="M101.92,96.39c-25.22-22.67-67-5.66-67,28H0c0-64,77.78-96.65,125.27-53.95Z"/><path class="cls-1" d="M101.38,152.84A40,40,0,0,1,89.29,160a41.42,41.42,0,0,1-30.2-.43,39.71,39.71,0,0,1-17.5-14,37.39,37.39,0,0,1-4.92-9.95,36.76,36.76,0,0,1-1.75-11.27H0A71.78,71.78,0,0,0,6,153,73.72,73.72,0,0,0,33.12,185.2a75.22,75.22,0,0,0,19.53,9.14,76.15,76.15,0,0,0,22.08,3.26h0a76.14,76.14,0,0,0,26.9-4.89,75,75,0,0,0,22.61-13.48Z"/><path class="cls-1" d="M17.46,106.92A17.46,17.46,0,0,0,0,124.38H0a17.46,17.46,0,1,0,34.92,0h0a17.46,17.46,0,0,0-17.46-17.46"/><path class="cls-1" d="M95.35,166a17.47,17.47,0,1,1,17.47,17.46A17.46,17.46,0,0,1,95.35,166Z"/><path class="cls-1" d="M96.13,83.41a17.47,17.47,0,1,1,17.46,17.46A17.46,17.46,0,0,1,96.13,83.41Z"/><path class="cls-1" d="M249.85,61.25c-63.4-22.68-92.07,20.34-92.09,56.45a17.47,17.47,0,0,0,34.93,0h0c0-4.6,2.43-22.68,16.06-26.87,8.9-2.7,20.56.15,29.34,3.3Z"/><path class="cls-1" d="M226.55,77.7A17.46,17.46,0,1,1,244,95.16,17.46,17.46,0,0,1,226.55,77.7Z"/><path class="cls-1" d="M192.69,178.13V72.21a17.46,17.46,0,0,0-34.92,0V178.13h34.92"/><path class="cls-1" d="M189,61.46c-21.23,11.2-31.22,34.92-31.22,56.24a17.46,17.46,0,0,0,34.92,0h0V72.21A17.4,17.4,0,0,0,189,61.46"/><circle class="cls-1" cx="175.23" cy="178.24" r="17.46" transform="translate(-19.41 335.05) rotate(-84.35)"/><rect class="cls-1" x="288.76" y="72.39" width="34.92" height="105.5"/><circle class="cls-1" cx="306.22" cy="19.45" r="17.46"/><path class="cls-1" d="M288.76,177.89a17.46,17.46,0,1,1,17.46,17.47,17.46,17.46,0,0,1-17.46-17.47Z"/><circle class="cls-1" cx="306.22" cy="72.39" r="17.46"/><polyline class="cls-1" points="353.77 77.25 353.77 235.59 388.69 235.59 388.69 77.25"/><path class="cls-1" d="M424.6,58.82A70.23,70.23,0,0,0,387,69.68a17.45,17.45,0,0,1,1.72,7.57v113A70.61,70.61,0,1,0,424.6,58.82m0,106.51a35.91,35.91,0,1,1,35.91-35.91,35.91,35.91,0,0,1-35.91,35.91"/><path class="cls-1" d="M387,69.68a70.62,70.62,0,0,0,1.72,120.54v-113A17.45,17.45,0,0,0,387,69.68"/><circle class="cls-1" cx="371.23" cy="235.59" r="17.46" transform="translate(-32.94 62.51) rotate(-9.22)"/><path class="cls-1" d="M353.77,77.15a17.46,17.46,0,1,1,17.46,17.46,17.46,17.46,0,0,1-17.46-17.46Z"/><path class="cls-1" d="M568.52,17.46l0,128.44c0,13.61,8.9,16,22.57,14l5.08,34.56c-40.18,5.91-62.49-17-62.55-49.46V17.46"/><path class="cls-1" d="M592.65,50.47H568.52V85.39h24.13Zm-59,0H523a17.46,17.46,0,0,0,0,34.92H533.6V50.47"/><polyline class="cls-1" points="568.52 50.47 533.6 50.47 533.6 85.39 568.52 85.39 568.52 50.47"/><path class="cls-1" d="M533.6,17.46a17.46,17.46,0,1,1,17.46,17.46A17.46,17.46,0,0,1,533.6,17.46Z"/><circle class="cls-1" cx="592.65" cy="67.93" r="17.46"/><path class="cls-1" d="M576.15,177.15a17.46,17.46,0,1,1,17.46,17.46,17.46,17.46,0,0,1-17.46-17.46Z"/><path class="cls-1" d="M751.28,126.84a36.94,36.94,0,0,0-6.6-21.12A39.23,39.23,0,0,0,727.4,91.81a40.75,40.75,0,0,0-27.2-1.29,39.52,39.52,0,0,0-10.3,4.84,38.67,38.67,0,0,0-14.17,16.8,36.77,36.77,0,0,0-3,14.68H637.79a71.86,71.86,0,0,1,12.78-41,74.11,74.11,0,0,1,32.66-26.33A75.17,75.17,0,0,1,712,53.85h0a75.22,75.22,0,0,1,22,3.26A74,74,0,0,1,780.31,98.3a71.75,71.75,0,0,1,5.89,28.54Z"/><path class="cls-1" d="M786.2,126.84a17.46,17.46,0,1,1-34.92,0h0c0,21.19-17.73,38.07-39.29,38.07-21.77,0-39.27-17.08-39.28-38.07h0a17.46,17.46,0,1,1-34.92,0c0,40.2,33.13,73,74.19,73h0c41,0,74.22-32.67,74.21-73"/><path class="cls-1" d="M655.25,109.38a17.47,17.47,0,0,0-17.46,17.47h0a17.46,17.46,0,1,0,34.92,0h0a17.47,17.47,0,0,0-17.46-17.47"/><path class="cls-1" d="M768.74,109.38a17.47,17.47,0,0,0-17.46,17.47h0a17.46,17.46,0,0,0,34.92,0h0a17.47,17.47,0,0,0-17.46-17.47"/><path class="cls-1" d="M914.87,96.39c-25.22-22.67-67-5.66-67,28H813c0-64,77.78-96.65,125.27-53.95Z"/><path class="cls-1" d="M914.33,152.84a40,40,0,0,1-12.09,7.2,41.42,41.42,0,0,1-30.2-.43,39.71,39.71,0,0,1-17.5-14,37.39,37.39,0,0,1-4.92-9.95,36.76,36.76,0,0,1-1.75-11.27H813A71.78,71.78,0,0,0,818.9,153a73.72,73.72,0,0,0,27.17,32.16,75.22,75.22,0,0,0,19.53,9.14,76.15,76.15,0,0,0,22.08,3.26h0a76.14,76.14,0,0,0,26.9-4.89,75,75,0,0,0,22.61-13.48Z"/><path class="cls-1" d="M830.41,106.92A17.46,17.46,0,0,0,813,124.38h0a17.46,17.46,0,0,0,34.92,0h0a17.46,17.46,0,0,0-17.46-17.46"/><circle class="cls-1" cx="925.77" cy="166" r="17.46" transform="translate(6.95 366.91) rotate(-22.5)"/><path class="cls-1" d="M909.08,83.41a17.47,17.47,0,1,1,17.46,17.46,17.46,17.46,0,0,1-17.46-17.46Z"/><path class="cls-1" d="M1084.21,126.84a36.94,36.94,0,0,0-6.6-21.12,39.26,39.26,0,0,0-17.27-13.91,40.75,40.75,0,0,0-27.2-1.29,39.44,39.44,0,0,0-10.31,4.84,38.58,38.58,0,0,0-14.16,16.8,36.78,36.78,0,0,0-3,14.68H970.72a71.86,71.86,0,0,1,12.78-41,74.16,74.16,0,0,1,32.66-26.33,75.17,75.17,0,0,1,28.77-5.7h0a75.2,75.2,0,0,1,21.94,3.26,74,74,0,0,1,46.36,41.19,71.75,71.75,0,0,1,5.89,28.54Z"/><path class="cls-1" d="M1119.13,126.84a17.46,17.46,0,1,1-34.92,0h0c0,21.19-17.73,38.07-39.28,38.07-21.78,0-39.28-17.08-39.29-38.07h0a17.46,17.46,0,1,1-34.92,0c0,40.2,33.13,73,74.2,73h0c41,0,74.21-32.67,74.2-73"/><path class="cls-1" d="M988.18,109.38a17.47,17.47,0,0,0-17.46,17.47h0a17.46,17.46,0,0,0,34.92,0h0a17.47,17.47,0,0,0-17.46-17.47"/><path class="cls-1" d="M1101.67,109.38a17.47,17.47,0,0,0-17.46,17.47h0a17.46,17.46,0,0,0,34.92,0h0a17.46,17.46,0,0,0-17.46-17.47"/><path class="cls-1" d="M1163.34,195.25h0a17.46,17.46,0,0,1-17.46-17.46V70.08a17.46,17.46,0,0,1,34.92,0V177.79A17.46,17.46,0,0,1,1163.34,195.25Z"/><path class="cls-1" d="M1209.77,53a64.69,64.69,0,0,0-31.46,8.09,17.36,17.36,0,0,1,2.49,9v45.37c0-31.1,46.79-38.45,56.43-8.09a26.45,26.45,0,0,1,1.25,8.09l17.52-43A64,64,0,0,0,1209.77,53Z"/><path class="cls-1" d="M1178.31,61.09a62.2,62.2,0,0,0-32.43,54.36,17.46,17.46,0,0,0,34.92,0V70.08a17.36,17.36,0,0,0-2.49-9"/><rect class="cls-1" x="1238.48" y="115.45" width="34.92" height="62.49"/><rect class="cls-1" x="1331.08" y="115.45" width="34.92" height="62.49"/><path class="cls-1" d="M1273.4,115.45h0c0-31.06,46.77-38.52,56.43-8.09a26.45,26.45,0,0,1,1.25,8.09H1366C1366,81,1337.68,53,1302.37,53A64.46,64.46,0,0,0,1256,72.49Z"/><path class="cls-1" d="M1268.36,91A62.37,62.37,0,0,0,1256,72.49a62.34,62.34,0,0,0-14.6,24.24,61.25,61.25,0,0,0-2.92,18.72,17.46,17.46,0,0,0,34.92,0,61.55,61.55,0,0,0-5-24.44Z"/><path class="cls-1" d="M1348.54,98a17.46,17.46,0,0,0-17.46,17.46h0a17.46,17.46,0,0,0,34.92,0h0A17.46,17.46,0,0,0,1348.54,98"/><path class="cls-1" d="M1145.88,177.89a17.46,17.46,0,1,1,17.46,17.47,17.46,17.46,0,0,1-17.46-17.47Z"/><path class="cls-1" d="M1331.08,177.89a17.46,17.46,0,1,1,17.46,17.47,17.46,17.46,0,0,1-17.46-17.47Z"/><path class="cls-1" d="M1238.48,177.89a17.46,17.46,0,1,1,17.46,17.47,17.46,17.46,0,0,1-17.46-17.47Z"/></g></g></svg>